<mxfile host="app.diagrams.net" modified="2023-04-24T15:15:02.784Z" agent="Mozilla/5.0 (Windows NT 10.0; Win64; x64) AppleWebKit/537.36 (KHTML, like Gecko) Chrome/112.0.0.0 Safari/537.36" etag="ArfJeJnciUJEgV3Mu_KC" version="21.1.1" type="device">
  <diagram name="Page-1" id="TxzCfmZFQfeB4gNFaBFd">
    <mxGraphModel dx="1050" dy="549" grid="1" gridSize="10" guides="1" tooltips="1" connect="1" arrows="1" fold="1" page="1" pageScale="1" pageWidth="850" pageHeight="1100" math="0" shadow="0">
      <root>
        <mxCell id="0" />
        <mxCell id="1" parent="0" />
        <mxCell id="N22bXAWKujgKx-br16dY-20" style="edgeStyle=orthogonalEdgeStyle;rounded=0;orthogonalLoop=1;jettySize=auto;html=1;exitX=1;exitY=0.25;exitDx=0;exitDy=0;entryX=0;entryY=0.5;entryDx=0;entryDy=0;" edge="1" parent="1" source="N22bXAWKujgKx-br16dY-5" target="N22bXAWKujgKx-br16dY-9">
          <mxGeometry relative="1" as="geometry" />
        </mxCell>
        <mxCell id="N22bXAWKujgKx-br16dY-27" style="edgeStyle=orthogonalEdgeStyle;rounded=0;orthogonalLoop=1;jettySize=auto;html=1;exitX=1;exitY=0.5;exitDx=0;exitDy=0;entryX=0;entryY=0.5;entryDx=0;entryDy=0;" edge="1" parent="1" source="N22bXAWKujgKx-br16dY-5" target="N22bXAWKujgKx-br16dY-10">
          <mxGeometry relative="1" as="geometry">
            <Array as="points">
              <mxPoint x="217" y="209" />
              <mxPoint x="217" y="199" />
              <mxPoint x="262" y="199" />
              <mxPoint x="262" y="174" />
            </Array>
          </mxGeometry>
        </mxCell>
        <mxCell id="N22bXAWKujgKx-br16dY-28" style="edgeStyle=orthogonalEdgeStyle;rounded=0;orthogonalLoop=1;jettySize=auto;html=1;exitX=1;exitY=0.75;exitDx=0;exitDy=0;entryX=0;entryY=0.5;entryDx=0;entryDy=0;" edge="1" parent="1" source="N22bXAWKujgKx-br16dY-5" target="N22bXAWKujgKx-br16dY-11">
          <mxGeometry relative="1" as="geometry" />
        </mxCell>
        <mxCell id="N22bXAWKujgKx-br16dY-29" style="edgeStyle=orthogonalEdgeStyle;rounded=0;orthogonalLoop=1;jettySize=auto;html=1;exitX=1;exitY=1;exitDx=0;exitDy=0;entryX=0;entryY=0.5;entryDx=0;entryDy=0;" edge="1" parent="1" source="N22bXAWKujgKx-br16dY-5" target="N22bXAWKujgKx-br16dY-12">
          <mxGeometry relative="1" as="geometry" />
        </mxCell>
        <mxCell id="N22bXAWKujgKx-br16dY-30" style="edgeStyle=orthogonalEdgeStyle;rounded=0;orthogonalLoop=1;jettySize=auto;html=1;exitX=0.75;exitY=1;exitDx=0;exitDy=0;entryX=0;entryY=0.5;entryDx=0;entryDy=0;" edge="1" parent="1" source="N22bXAWKujgKx-br16dY-5" target="N22bXAWKujgKx-br16dY-13">
          <mxGeometry relative="1" as="geometry" />
        </mxCell>
        <mxCell id="N22bXAWKujgKx-br16dY-31" style="edgeStyle=orthogonalEdgeStyle;rounded=0;orthogonalLoop=1;jettySize=auto;html=1;exitX=0.5;exitY=1;exitDx=0;exitDy=0;entryX=0;entryY=0.5;entryDx=0;entryDy=0;" edge="1" parent="1" source="N22bXAWKujgKx-br16dY-5" target="N22bXAWKujgKx-br16dY-8">
          <mxGeometry relative="1" as="geometry" />
        </mxCell>
        <mxCell id="N22bXAWKujgKx-br16dY-35" style="edgeStyle=orthogonalEdgeStyle;rounded=0;orthogonalLoop=1;jettySize=auto;html=1;exitX=0.75;exitY=0;exitDx=0;exitDy=0;entryX=0;entryY=0.5;entryDx=0;entryDy=0;" edge="1" parent="1" source="N22bXAWKujgKx-br16dY-5" target="N22bXAWKujgKx-br16dY-32">
          <mxGeometry relative="1" as="geometry" />
        </mxCell>
        <mxCell id="N22bXAWKujgKx-br16dY-5" value="&lt;font style=&quot;font-size: 24px;&quot;&gt;User&lt;/font&gt;" style="whiteSpace=wrap;html=1;" vertex="1" parent="1">
          <mxGeometry x="42" y="179" width="120" height="60" as="geometry" />
        </mxCell>
        <mxCell id="N22bXAWKujgKx-br16dY-8" value="Address" style="whiteSpace=wrap;html=1;" vertex="1" parent="1">
          <mxGeometry x="272" y="319" width="70" height="30" as="geometry" />
        </mxCell>
        <mxCell id="N22bXAWKujgKx-br16dY-43" style="edgeStyle=orthogonalEdgeStyle;rounded=0;orthogonalLoop=1;jettySize=auto;html=1;exitX=1;exitY=0.5;exitDx=0;exitDy=0;entryX=0;entryY=0.5;entryDx=0;entryDy=0;" edge="1" parent="1" source="N22bXAWKujgKx-br16dY-9" target="N22bXAWKujgKx-br16dY-40">
          <mxGeometry relative="1" as="geometry" />
        </mxCell>
        <mxCell id="N22bXAWKujgKx-br16dY-9" value="ID" style="whiteSpace=wrap;html=1;" vertex="1" parent="1">
          <mxGeometry x="282" y="119" width="50" height="30" as="geometry" />
        </mxCell>
        <mxCell id="N22bXAWKujgKx-br16dY-10" value="Username" style="whiteSpace=wrap;html=1;" vertex="1" parent="1">
          <mxGeometry x="272" y="159" width="70" height="30" as="geometry" />
        </mxCell>
        <mxCell id="N22bXAWKujgKx-br16dY-11" value="Email" style="whiteSpace=wrap;html=1;" vertex="1" parent="1">
          <mxGeometry x="282" y="199" width="50" height="30" as="geometry" />
        </mxCell>
        <mxCell id="N22bXAWKujgKx-br16dY-12" value="Password" style="whiteSpace=wrap;html=1;" vertex="1" parent="1">
          <mxGeometry x="272" y="239" width="70" height="30" as="geometry" />
        </mxCell>
        <mxCell id="N22bXAWKujgKx-br16dY-13" value="profile_pic" style="whiteSpace=wrap;html=1;" vertex="1" parent="1">
          <mxGeometry x="262" y="279" width="90" height="30" as="geometry" />
        </mxCell>
        <mxCell id="N22bXAWKujgKx-br16dY-32" value="_ID" style="whiteSpace=wrap;html=1;" vertex="1" parent="1">
          <mxGeometry x="282" y="79" width="50" height="30" as="geometry" />
        </mxCell>
        <mxCell id="N22bXAWKujgKx-br16dY-41" style="edgeStyle=orthogonalEdgeStyle;rounded=0;orthogonalLoop=1;jettySize=auto;html=1;exitX=0.25;exitY=0;exitDx=0;exitDy=0;entryX=1;entryY=0.5;entryDx=0;entryDy=0;" edge="1" parent="1" source="N22bXAWKujgKx-br16dY-36" target="N22bXAWKujgKx-br16dY-40">
          <mxGeometry relative="1" as="geometry" />
        </mxCell>
        <mxCell id="N22bXAWKujgKx-br16dY-45" style="edgeStyle=orthogonalEdgeStyle;rounded=0;orthogonalLoop=1;jettySize=auto;html=1;exitX=0.75;exitY=0;exitDx=0;exitDy=0;entryX=0;entryY=0.5;entryDx=0;entryDy=0;" edge="1" parent="1" source="N22bXAWKujgKx-br16dY-36" target="N22bXAWKujgKx-br16dY-44">
          <mxGeometry relative="1" as="geometry" />
        </mxCell>
        <mxCell id="N22bXAWKujgKx-br16dY-50" style="edgeStyle=orthogonalEdgeStyle;rounded=0;orthogonalLoop=1;jettySize=auto;html=1;exitX=1;exitY=0.5;exitDx=0;exitDy=0;entryX=0;entryY=0.5;entryDx=0;entryDy=0;" edge="1" parent="1" source="N22bXAWKujgKx-br16dY-36" target="N22bXAWKujgKx-br16dY-46">
          <mxGeometry relative="1" as="geometry" />
        </mxCell>
        <mxCell id="N22bXAWKujgKx-br16dY-51" style="edgeStyle=orthogonalEdgeStyle;rounded=0;orthogonalLoop=1;jettySize=auto;html=1;exitX=0.75;exitY=1;exitDx=0;exitDy=0;entryX=0;entryY=0.5;entryDx=0;entryDy=0;" edge="1" parent="1" source="N22bXAWKujgKx-br16dY-36" target="N22bXAWKujgKx-br16dY-47">
          <mxGeometry relative="1" as="geometry" />
        </mxCell>
        <mxCell id="N22bXAWKujgKx-br16dY-52" style="edgeStyle=orthogonalEdgeStyle;rounded=0;orthogonalLoop=1;jettySize=auto;html=1;exitX=0.5;exitY=0;exitDx=0;exitDy=0;entryX=0;entryY=0.5;entryDx=0;entryDy=0;" edge="1" parent="1" source="N22bXAWKujgKx-br16dY-36" target="N22bXAWKujgKx-br16dY-49">
          <mxGeometry relative="1" as="geometry" />
        </mxCell>
        <mxCell id="N22bXAWKujgKx-br16dY-54" style="edgeStyle=orthogonalEdgeStyle;rounded=0;orthogonalLoop=1;jettySize=auto;html=1;exitX=0.5;exitY=1;exitDx=0;exitDy=0;entryX=0;entryY=0.5;entryDx=0;entryDy=0;" edge="1" parent="1" source="N22bXAWKujgKx-br16dY-36" target="N22bXAWKujgKx-br16dY-53">
          <mxGeometry relative="1" as="geometry" />
        </mxCell>
        <mxCell id="N22bXAWKujgKx-br16dY-36" value="&lt;font style=&quot;font-size: 24px;&quot;&gt;Question&lt;/font&gt;" style="whiteSpace=wrap;html=1;" vertex="1" parent="1">
          <mxGeometry x="482" y="184" width="120" height="60" as="geometry" />
        </mxCell>
        <mxCell id="N22bXAWKujgKx-br16dY-42" style="edgeStyle=orthogonalEdgeStyle;rounded=0;orthogonalLoop=1;jettySize=auto;html=1;exitX=0;exitY=0.5;exitDx=0;exitDy=0;entryX=1;entryY=0.5;entryDx=0;entryDy=0;" edge="1" parent="1" source="N22bXAWKujgKx-br16dY-40" target="N22bXAWKujgKx-br16dY-9">
          <mxGeometry relative="1" as="geometry" />
        </mxCell>
        <mxCell id="N22bXAWKujgKx-br16dY-40" value="Owner_id" style="whiteSpace=wrap;html=1;" vertex="1" parent="1">
          <mxGeometry x="402" y="119" width="70" height="30" as="geometry" />
        </mxCell>
        <mxCell id="N22bXAWKujgKx-br16dY-44" value="Date" style="whiteSpace=wrap;html=1;" vertex="1" parent="1">
          <mxGeometry x="672" y="149" width="70" height="30" as="geometry" />
        </mxCell>
        <mxCell id="N22bXAWKujgKx-br16dY-90" style="edgeStyle=orthogonalEdgeStyle;rounded=0;orthogonalLoop=1;jettySize=auto;html=1;exitX=1;exitY=0.75;exitDx=0;exitDy=0;entryX=0;entryY=0.5;entryDx=0;entryDy=0;" edge="1" parent="1" source="N22bXAWKujgKx-br16dY-46" target="N22bXAWKujgKx-br16dY-86">
          <mxGeometry relative="1" as="geometry" />
        </mxCell>
        <mxCell id="N22bXAWKujgKx-br16dY-92" style="edgeStyle=orthogonalEdgeStyle;rounded=0;orthogonalLoop=1;jettySize=auto;html=1;exitX=1;exitY=0.25;exitDx=0;exitDy=0;entryX=0;entryY=0.5;entryDx=0;entryDy=0;" edge="1" parent="1" source="N22bXAWKujgKx-br16dY-46" target="N22bXAWKujgKx-br16dY-85">
          <mxGeometry relative="1" as="geometry" />
        </mxCell>
        <mxCell id="N22bXAWKujgKx-br16dY-93" style="edgeStyle=orthogonalEdgeStyle;rounded=0;orthogonalLoop=1;jettySize=auto;html=1;exitX=0.75;exitY=0;exitDx=0;exitDy=0;entryX=0;entryY=0.75;entryDx=0;entryDy=0;" edge="1" parent="1" source="N22bXAWKujgKx-br16dY-46" target="N22bXAWKujgKx-br16dY-84">
          <mxGeometry relative="1" as="geometry">
            <Array as="points">
              <mxPoint x="740" y="199" />
              <mxPoint x="740" y="190" />
              <mxPoint x="791" y="190" />
              <mxPoint x="791" y="182" />
            </Array>
          </mxGeometry>
        </mxCell>
        <mxCell id="N22bXAWKujgKx-br16dY-94" style="edgeStyle=orthogonalEdgeStyle;rounded=0;orthogonalLoop=1;jettySize=auto;html=1;exitX=1;exitY=1;exitDx=0;exitDy=0;entryX=0;entryY=0.5;entryDx=0;entryDy=0;" edge="1" parent="1" source="N22bXAWKujgKx-br16dY-46" target="N22bXAWKujgKx-br16dY-87">
          <mxGeometry relative="1" as="geometry">
            <Array as="points">
              <mxPoint x="770" y="229" />
              <mxPoint x="770" y="294" />
            </Array>
          </mxGeometry>
        </mxCell>
        <mxCell id="N22bXAWKujgKx-br16dY-46" value="Type" style="whiteSpace=wrap;html=1;" vertex="1" parent="1">
          <mxGeometry x="672" y="199" width="70" height="30" as="geometry" />
        </mxCell>
        <mxCell id="N22bXAWKujgKx-br16dY-47" value="Response" style="whiteSpace=wrap;html=1;" vertex="1" parent="1">
          <mxGeometry x="672" y="249" width="70" height="30" as="geometry" />
        </mxCell>
        <mxCell id="N22bXAWKujgKx-br16dY-49" value="ID" style="whiteSpace=wrap;html=1;" vertex="1" parent="1">
          <mxGeometry x="672" y="99" width="70" height="30" as="geometry" />
        </mxCell>
        <mxCell id="N22bXAWKujgKx-br16dY-53" value="Query" style="whiteSpace=wrap;html=1;" vertex="1" parent="1">
          <mxGeometry x="672" y="299" width="70" height="30" as="geometry" />
        </mxCell>
        <mxCell id="N22bXAWKujgKx-br16dY-84" value="text" style="whiteSpace=wrap;html=1;" vertex="1" parent="1">
          <mxGeometry x="840" y="159" width="70" height="30" as="geometry" />
        </mxCell>
        <mxCell id="N22bXAWKujgKx-br16dY-85" value="number" style="whiteSpace=wrap;html=1;" vertex="1" parent="1">
          <mxGeometry x="840" y="199" width="70" height="30" as="geometry" />
        </mxCell>
        <mxCell id="N22bXAWKujgKx-br16dY-86" value="boolean" style="whiteSpace=wrap;html=1;" vertex="1" parent="1">
          <mxGeometry x="840" y="239" width="70" height="30" as="geometry" />
        </mxCell>
        <mxCell id="N22bXAWKujgKx-br16dY-87" value="multiple_choice" style="whiteSpace=wrap;html=1;" vertex="1" parent="1">
          <mxGeometry x="830" y="279" width="90" height="30" as="geometry" />
        </mxCell>
      </root>
    </mxGraphModel>
  </diagram>
</mxfile>
